<?xml version="1.0" standalone="no"?>
<!DOCTYPE svg PUBLIC "-//W3C//DTD SVG 20010904//EN"
 "http://www.w3.org/TR/2001/REC-SVG-20010904/DTD/svg10.dtd">
<svg version="1.0" xmlns="http://www.w3.org/2000/svg"
 width="840.000000pt" height="836.000000pt" viewBox="0 0 840.000000 836.000000"
 preserveAspectRatio="xMidYMid meet">
<metadata>
Created by potrace 1.16, written by Peter Selinger 2001-2019
</metadata>
<g transform="translate(0.000000,836.000000) scale(0.100000,-0.100000)"
fill="#000000" stroke="none">
<path d="M5785 7939 c-4 -5 -491 -463 -1083 -1017 -592 -554 -1147 -1072
-1232 -1152 -159 -150 -1511 -1415 -1950 -1824 -135 -126 -336 -315 -447 -419
l-203 -190 0 -271 0 -271 97 -96 c106 -104 238 -219 252 -219 5 0 72 59 150
131 l141 130 561 -412 561 -412 -7 -151 -7 -150 -47 -42 c-25 -23 -44 -44 -41
-47 39 -38 555 -355 672 -413 l76 -37 138 135 c141 136 446 430 1619 1558 357
344 774 744 925 890 152 146 566 544 920 885 355 342 797 767 983 945 l337
325 0 271 0 272 -41 97 c-342 824 -914 1287 -1782 1445 -225 40 -577 64 -592
39z m-122 -1427 c65 -29 148 -110 183 -179 24 -48 29 -70 29 -128 l-1 -70 91
0 c75 0 98 -4 140 -24 67 -33 175 -142 208 -211 68 -140 36 -301 -91 -453 -83
-99 -421 -407 -447 -407 -18 0 -127 112 -471 480 -376 403 -449 486 -449 510
0 24 29 55 190 205 212 198 280 249 375 283 79 28 171 26 243 -6z m-921 -774
c114 -121 113 -129 -22 -178 -104 -37 -222 -111 -276 -173 -94 -108 -98 -210
-12 -282 28 -24 39 -27 84 -23 43 4 76 19 195 89 170 101 222 124 311 139 121
21 236 -19 333 -116 125 -124 162 -275 106 -424 -41 -108 -151 -241 -280 -338
-87 -66 -267 -162 -303 -162 -16 0 -43 21 -89 73 -36 39 -68 78 -73 84 -15 26
14 51 86 73 180 54 355 181 407 295 55 119 -18 245 -141 245 -52 0 -106 -25
-259 -117 -64 -38 -148 -80 -187 -92 -173 -56 -318 -8 -427 140 -53 72 -75
139 -75 229 0 157 96 310 280 449 72 54 247 151 272 151 6 0 37 -28 70 -62z
m-598 -986 c162 -174 309 -335 326 -357 17 -21 49 -76 72 -121 34 -70 41 -93
45 -167 10 -156 -48 -280 -196 -419 -140 -132 -294 -191 -434 -168 -91 16
-188 66 -275 142 -95 84 -614 643 -627 674 -9 23 -3 32 67 100 53 52 83 74
101 74 20 0 78 -57 287 -282 145 -156 291 -310 326 -344 155 -149 266 -156
407 -26 58 54 97 129 97 188 0 55 -46 143 -117 225 -32 36 -173 189 -313 339
-147 157 -256 282 -258 295 -2 16 15 40 68 91 72 69 95 85 117 77 6 -3 144
-147 307 -321z"/>
<path d="M5457 6266 c-40 -15 -80 -46 -197 -154 l-75 -69 62 -69 c34 -38 79
-86 101 -107 l39 -38 107 102 c121 115 151 162 143 222 -6 42 -42 89 -89 113
-33 17 -42 17 -91 0z"/>
<path d="M5815 5896 c-41 -21 -264 -214 -272 -236 -1 -3 58 -68 131 -145 l134
-140 108 101 c173 160 201 228 139 329 -63 102 -152 135 -240 91z"/>
<path d="M1542 2517 l-33 -34 83 -63 c46 -35 88 -67 94 -71 6 -5 25 7 48 30
l37 38 -89 67 c-49 36 -94 66 -99 66 -5 0 -24 -15 -41 -33z"/>
<path d="M1023 2078 c-76 -73 -139 -136 -141 -139 -2 -4 54 -51 124 -104 l126
-98 145 145 145 145 -116 89 c-65 49 -124 90 -131 92 -8 2 -77 -57 -152 -130z"/>
<path d="M2141 2084 c-17 -14 -31 -30 -31 -35 0 -4 41 -40 92 -79 l91 -71 34
33 c18 17 33 35 33 39 0 10 -166 139 -179 139 -5 0 -23 -12 -40 -26z"/>
<path d="M1601 1639 c-113 -110 -141 -142 -132 -153 6 -7 63 -53 127 -101
l115 -89 146 146 145 145 -123 97 c-68 52 -126 95 -129 95 -3 0 -70 -63 -149
-140z"/>
<path d="M257 1445 l-47 -43 0 -75 0 -76 323 -248 c177 -136 423 -325 547
-421 l225 -173 6 58 c4 32 7 101 7 153 l1 95 -495 380 c-273 209 -501 383
-508 387 -7 4 -32 -12 -59 -37z"/>
</g>
</svg>
